<?xml version="1.0" standalone="no"?>
<!DOCTYPE svg PUBLIC "-//W3C//DTD SVG 1.1//EN" "http://www.w3.org/Graphics/SVG/1.1/DTD/svg11.dtd">
<svg xmlns="http://www.w3.org/2000/svg">
    <defs >
        <font id="OpenSans" horiz-adv-x="1131" >
            <font-face
                font-family="Open Sans"
                units-per-em="2048"
                panose-1="2 11 6 6 3 5 4 2 2 4"
                ascent="2189"
                descent="-600"
                alphabetic="0" />
            <glyph unicode=" " glyph-name="space" horiz-adv-x="532" />
            <glyph unicode="!" glyph-name="exclam" horiz-adv-x="530" d="M555 1462L281 403H172Q221 710 348 1462H555ZM43 78Q43 154 82 198T190 242Q235 242 263 215T291 133Q291 65 252 18T147 -29Q98 -29 71 -1T43 78Z" />
            <glyph unicode="&quot;" glyph-name="quotedbl" horiz-adv-x="791" d="M485 1462L332 934H225L297 1462H485ZM834 1462L680 934H573L645 1462H834Z" />
            <glyph unicode="#" glyph-name="numbersign" horiz-adv-x="1323" d="M1036 899L938 559H1223L1210 430H901L776 0H637L766 430H463L336 0H203L324 430H63L76 559H360L461 899H184L197 1026H498L621 1462H760L635 1026H940L1067 1462H1200L1075 1026H1339L1327
899H1036ZM500 559H803L899 899H596L500 559Z" />
            <glyph unicode="$" glyph-name="dollar" horiz-adv-x="1128" d="M942 492Q942 330 830 229T520 106L471 -119H338L387 104Q192 118 72 176V330Q154 289 247 267T414 244L512 696Q373 745 311 819T248 1008Q248 1167 356 1263T655 1376L694 1552H827L788 1374Q947
1362 1071 1298L1008 1163Q887 1226 760 1235L666 795Q815 740 878 670T942 492ZM549 250Q656 263 719 325T782 479Q782 533 749 575T635 649L549 250ZM627 1235Q519 1224 460 1166T401 1010Q401 957 435 913T543 842L627 1235Z" />
            <glyph unicode="%" glyph-name="percent" horiz-adv-x="1624" d="M1468 1462L383 0H231L1317 1462H1468ZM1284 772Q1217 772 1165 708T1081 519T1049 279Q1049 106 1155 106Q1220 106 1272 171T1358 369T1393 606Q1393 772 1284 772ZM1532 621Q1532 514 1501 385T1419
168T1298 30T1141 -20Q1031 -20 970 54T909 274Q909 440 959 592T1096 821T1296 897Q1412 897 1472 826T1532 621ZM543 1358Q477 1358 424 1295T339 1108T307 864Q307 692 414 692Q466 692 508 731T581 845T632 1020T651 1192Q651 1358 543 1358ZM791 1206Q791
1098 759 969T677 751T556 614T399 565Q290 565 229 640T168 860Q168 1026 218 1178T355 1407T555 1483Q671 1483 731 1411T791 1206Z" />
            <glyph unicode="&amp;" glyph-name="ampersand" horiz-adv-x="1372" d="M737 1348Q632 1348 574 1288T516 1118Q516 998 598 883Q737 954 789 993T872 1078T903 1182Q903 1259 861 1303T737 1348ZM471 119Q558 119 639 152T834 276L528 709Q400 642 344 593T259
486T229 354Q229 248 295 184T471 119ZM66 342Q66 490 156 599T459 811Q356 976 356 1120Q356 1284 462 1384T743 1485Q892 1485 979 1406T1067 1194Q1067 1116 1035 1057T947 949T820 859T666 776L944 387Q1071 497 1143 682H1311Q1210 446 1028 270L1231 0H1030L913
166Q793 66 683 23T436 -20Q268 -20 167 76T66 342Z" />
            <glyph unicode="&apos;" glyph-name="quotesingle" horiz-adv-x="444" d="M485 1462L332 934H225L297 1462H485Z" />
            <glyph unicode="(" glyph-name="parenleft" horiz-adv-x="584" d="M82 272Q82 611 202 899T586 1462H743Q497 1192 372 892T246 274Q246 -65 360 -324H229Q82 -58 82 272Z" />
            <glyph unicode=")" glyph-name="parenright" horiz-adv-x="584" d="M500 864Q500 523 379 235T-4 -324H-160Q336 227 336 864Q336 1205 223 1462H354Q500 1193 500 864Z" />
            <glyph unicode="*" glyph-name="asterisk" horiz-adv-x="1130" d="M854 1528L731 1145L1153 1163L1145 1006L752 1053L932 670L766 618L653 1024L395 680L279 801L588 1085L215 1194L270 1348L641 1163L682 1563L854 1528Z" />
            <glyph unicode="+" glyph-name="plus" horiz-adv-x="1128" d="M516 651H127V793H516V1184H657V793H1047V651H657V264H516V651Z" />
            <glyph unicode="," glyph-name="comma" horiz-adv-x="492" d="M291 238L299 215Q186 -20 29 -264H-100Q26 22 104 238H291Z" />
            <glyph unicode="-" glyph-name="hyphen" horiz-adv-x="639" d="M55 469L90 627H569L535 469H55Z" />
            <glyph unicode="." glyph-name="period" horiz-adv-x="518" d="M43 74Q43 151 83 196T195 242Q238 242 264 216T291 137Q291 66 251 19T143 -29Q97 -29 70 -3T43 74Z" />
            <glyph unicode="/" glyph-name="slash" horiz-adv-x="717" d="M893 1462L80 0H-94L719 1462H893Z" />
            <glyph unicode="0" glyph-name="zero" horiz-adv-x="1128" d="M1092 1014Q1092 719 1014 475T800 106T485 -20Q309 -20 215 107T121 477Q121 747 203 991T419 1360T727 1485Q1092 1485 1092 1014ZM717 1341Q604 1341 508 1226T353 903T293 479Q293 307 343 215T504
123Q619 123 713 237T863 565T920 1018Q920 1341 717 1341Z" />
            <glyph unicode="1" glyph-name="one" horiz-adv-x="1128" d="M588 0H416L612 913Q671 1174 700 1272Q650 1219 561 1161L383 1051L303 1178L752 1462H901L588 0Z" />
            <glyph unicode="2" glyph-name="two" horiz-adv-x="1128" d="M911 0H12L43 147L508 567Q610 660 684 730T807 863T879 987T903 1124Q903 1223 843 1281T680 1339Q603 1339 530 1311T367 1214L285 1329Q476 1483 698 1483Q874 1483 976 1395T1079 1151Q1079 1040
1040 947T909 750T614 469L262 162V154H940L911 0Z" />
            <glyph unicode="3" glyph-name="three" horiz-adv-x="1128" d="M1073 1159Q1073 1003 972 895T692 754V745Q816 722 887 639T958 430Q958 297 896 196T715 37T432 -20Q222 -20 47 59V223Q141 174 246 148T436 121Q598 121 688 200T778 418Q778 549 699 616T479
684H348L379 827H518Q683 827 792 914T901 1141Q901 1233 843 1287T686 1341Q606 1341 529 1314T354 1221L274 1339Q469 1483 698 1483Q877 1483 975 1396T1073 1159Z" />
            <glyph unicode="4" glyph-name="four" horiz-adv-x="1128" d="M1067 334H834L762 0H598L672 334H16L45 492L879 1470H1075L868 487H1100L1067 334ZM705 487Q751 707 783 860T899 1305H891Q874 1276 825 1209T752 1112L219 487H705Z" />
            <glyph unicode="5" glyph-name="five" horiz-adv-x="1128" d="M598 893Q780 893 887 789T995 506Q995 345 922 223T718 41T410 -20Q217 -20 80 59V223Q244 121 414 121Q605 121 712 217T819 485Q819 611 746 684T541 758Q493 758 444 752T305 721L231 778L428
1462H1096L1063 1309H541L414 870Q501 893 598 893Z" />
            <glyph unicode="6" glyph-name="six" horiz-adv-x="1128" d="M133 424Q133 633 193 839T357 1190T603 1409T930 1483Q1041 1483 1114 1460L1079 1315Q1011 1337 909 1337Q697 1337 553 1188T340 745H348Q407 824 494 871T688 918Q842 918 932 820T1022 549Q1022
388 956 255T775 51T514 -20Q332 -20 233 95T133 424ZM532 121Q626 121 699 175T813 324T854 532Q854 780 633 780Q567 780 505 752T395 676T323 571T299 416Q299 279 359 200T532 121Z" />
            <glyph unicode="7" glyph-name="seven" horiz-adv-x="1128" d="M174 0L942 1313H223L254 1462H1145L1118 1323L354 0H174Z" />
            <glyph unicode="8" glyph-name="eight" horiz-adv-x="1128" d="M741 1485Q915 1485 1012 1399T1110 1163Q1110 1034 1032 938T766 762Q893 684 946 597T999 395Q999 273 939 178T767 31T502 -20Q312 -20 204 78T96 346Q96 494 191 602T487 786Q392 855 352 930T311
1102Q311 1213 365 1300T519 1436T741 1485ZM608 700Q423 640 347 557T270 354Q270 247 339 184T520 121Q659 121 742 195T825 391Q825 490 773 565T608 700ZM729 1341Q615 1341 547 1276T479 1100Q479 1018 518 956T645 840Q806 900 873 971T940 1145Q940 1235
883 1288T729 1341Z" />
            <glyph unicode="9" glyph-name="nine" horiz-adv-x="1128" d="M1067 1034Q1067 840 1011 628T864 268T642 50T340 -20Q204 -20 98 14V172Q232 125 344 125Q546 125 671 266T860 707H850Q799 632 718 589T537 545Q368 545 276 643T184 932Q184 1085 248 1212T428
1411T688 1483Q868 1483 967 1369T1067 1034ZM682 1341Q532 1341 441 1228T350 938Q350 814 404 748T567 682Q643 682 707 710T815 792T880 906T901 1057Q901 1188 842 1264T682 1341Z" />
            <glyph unicode=":" glyph-name="colon" horiz-adv-x="518" d="M43 74Q43 151 83 196T195 242Q238 242 264 216T291 137Q291 66 251 19T143 -29Q97 -29 70 -3T43 74ZM203 956Q203 1033 243 1078T354 1124Q451 1124 451 1020Q451 947 410 901T303 854Q257 854 230
880T203 956Z" />
            <glyph unicode=";" glyph-name="semicolon" horiz-adv-x="518" d="M291 238L299 215Q186 -20 29 -264H-100Q26 22 104 238H291ZM203 956Q203 1033 243 1078T354 1124Q451 1124 451 1020Q451 947 410 901T303 854Q257 854 230 880T203 956Z" />
            <glyph unicode="&lt;" glyph-name="less" horiz-adv-x="1128" d="M1040 242L121 664V762L1040 1241V1092L293 721L1040 393V242Z" />
            <glyph unicode="=" glyph-name="equal" horiz-adv-x="1128" d="M127 858V997H1047V858H127ZM127 444V586H1047V444H127Z" />
            <glyph unicode="&gt;" glyph-name="greater" horiz-adv-x="1128" d="M121 393L866 721L121 1092V1241L1040 762V664L121 242V393Z" />
            <glyph unicode="?" glyph-name="question" horiz-adv-x="874" d="M260 403Q282 533 332 616T498 791Q626 891 666 935T729 1029T752 1141Q752 1234 701 1284T553 1335Q472 1335 398 1310T258 1253L197 1382Q289 1433 389 1458T571 1483Q738 1483 830 1399T922
1161Q922 1038 857 935T631 711Q506 620 462 564T395 403H260ZM158 74Q158 151 198 196T309 242Q353 242 379 216T406 137Q406 64 365 18T258 -29Q212 -29 185 -3T158 74Z" />
            <glyph unicode="@" glyph-name="at" horiz-adv-x="1735" d="M1679 852Q1679 673 1624 528T1469 301T1247 219Q1050 219 1034 403H1026Q915 219 735 219Q620 219 555 294T489 504Q489 661 557 788T745 987T1006 1059Q1071 1059 1133 1047T1284 999Q1220 757 1186
631T1155 459Q1155 342 1257 342Q1335 342 1398 409T1499 592T1536 836Q1536 1075 1408 1203T1038 1331Q810 1331 632 1224T355 929T256 512Q256 242 399 94T809 -55Q1006 -55 1229 31V-96Q1010 -186 786 -186Q472 -186 292 -2T111 504Q111 765 237 989T581 1337T1067
1460Q1258 1460 1396 1385T1606 1171T1679 852ZM985 938Q891 938 811 883T685 730T639 518Q639 425 672 384T770 342Q957 342 1042 657L1112 915Q1049 938 985 938Z" />
            <glyph unicode="A" glyph-name="A" horiz-adv-x="1137" d="M813 465H317L72 0H-117L682 1462H856L1040 0H870L813 465ZM795 621L760 920Q736 1099 731 1270Q694 1182 651 1095T401 621H795Z" />
            <glyph unicode="B" glyph-name="B" horiz-adv-x="1225" d="M770 1462Q1202 1462 1202 1126Q1202 985 1115 888T870 762V752Q985 720 1046 642T1108 453Q1108 241 956 121T549 0H86L395 1462H770ZM434 836H682Q838 836 931 909T1024 1108Q1024 1212 958 1263T748
1315H537L434 836ZM287 145H553Q734 145 831 225T928 453Q928 569 854 630T639 692H403L287 145Z" />
            <glyph unicode="C" glyph-name="C" horiz-adv-x="1198" d="M942 1331Q768 1331 631 1234T413 950T332 541Q332 354 429 243T698 131Q837 131 1020 188V39Q934 8 856 -6T668 -20Q426 -20 288 129T150 537Q150 798 255 1022T539 1365T942 1483Q1139 1483 1290 1403L1221
1262Q1083 1331 942 1331Z" />
            <glyph unicode="D" glyph-name="D" horiz-adv-x="1364" d="M1300 877Q1300 616 1195 416T895 108T438 0H86L395 1462H737Q1013 1462 1156 1313T1300 877ZM449 147Q651 147 804 238T1038 497T1120 879Q1120 1094 1017 1204T715 1315H537L287 147H449Z" />
            <glyph unicode="E" glyph-name="E" horiz-adv-x="1047" d="M821 0H86L395 1462H1130L1098 1309H532L434 840H961L932 688H403L289 152H854L821 0Z" />
            <glyph unicode="F" glyph-name="F" horiz-adv-x="967" d="M258 0H86L395 1462H1130L1100 1309H532L422 776H950L918 623H389L258 0Z" />
            <glyph unicode="G" glyph-name="G" horiz-adv-x="1386" d="M821 766H1280L1126 55Q910 -20 707 -20Q443 -20 297 124T150 528Q150 797 251 1017T533 1360T932 1483Q1049 1483 1151 1463T1358 1399L1292 1247Q1215 1281 1127 1306T932 1331Q763 1331 625 1230T409
946T332 539Q332 349 434 240T721 131Q875 131 981 170L1077 614H788L821 766Z" />
            <glyph unicode="H" glyph-name="H" horiz-adv-x="1389" d="M1085 0H918L1061 688H401L256 0H86L395 1462H565L434 840H1094L1227 1462H1395L1085 0Z" />
            <glyph unicode="I" glyph-name="I" horiz-adv-x="559" d="M86 0L397 1462H565L254 0H86Z" />
            <glyph unicode="J" glyph-name="J" horiz-adv-x="547" d="M-166 -385Q-271 -385 -319 -360L-313 -213Q-244 -233 -168 -233Q-68 -233 -3 -171T88 12L395 1462H565L256 -6Q177 -385 -166 -385Z" />
            <glyph unicode="K" glyph-name="K" horiz-adv-x="1141" d="M1034 0H848Q776 181 702 359T555 721L381 590L256 0H86L395 1462H565L414 752L1114 1462H1323L684 825L1034 0Z" />
            <glyph unicode="L" glyph-name="L" horiz-adv-x="971" d="M86 0L395 1462H565L289 154H854L821 0H86Z" />
            <glyph unicode="M" glyph-name="M" horiz-adv-x="1714" d="M676 0L510 1296H502Q495 1224 474 1099T436 899L246 0H84L393 1462H637L786 258H795L1454 1462H1720L1417 0H1243Q1369 590 1436 905T1530 1298H1524L807 0H676Z" />
            <glyph unicode="N" glyph-name="N" horiz-adv-x="1438" d="M1139 0H958L498 1223H492Q460 1002 418 805L246 0H84L393 1462H573L1032 242H1038Q1068 466 1110 647L1284 1462H1448L1139 0Z" />
            <glyph unicode="O" glyph-name="O" horiz-adv-x="1475" d="M1411 907Q1411 638 1323 426T1071 97T692 -20Q436 -20 293 129T150 549Q150 813 246 1031T509 1367T887 1485Q1131 1485 1271 1331T1411 907ZM874 1333Q717 1333 593 1232T401 951T332 553Q332 354 430
243T696 131Q848 131 968 228T1159 508T1229 911Q1229 1110 1135 1221T874 1333Z" />
            <glyph unicode="P" glyph-name="P" horiz-adv-x="1159" d="M1159 1085Q1159 837 995 706T514 575H379L256 0H86L395 1462H725Q939 1462 1049 1368T1159 1085ZM410 721H543Q759 721 871 812T983 1079Q983 1204 914 1259T700 1315H537L410 721Z" />
            <glyph unicode="Q" glyph-name="Q" horiz-adv-x="1475" d="M874 1333Q717 1333 593 1232T401 951T332 553Q332 354 430 243T696 131Q854 131 975 231T1162 511T1229 911Q1229 1110 1135 1221T874 1333ZM725 -18L708 -20H692Q436 -20 293 129T150 549Q150 813 246
1031T509 1367T887 1485Q1131 1485 1271 1331T1411 907Q1411 574 1272 331T897 10L1171 -348H952L725 -18Z" />
            <glyph unicode="R" glyph-name="R" horiz-adv-x="1165" d="M385 608L256 0H86L395 1462H715Q1161 1462 1161 1096Q1161 748 793 647L1032 0H846L637 608H385ZM532 1313Q430 819 416 754H584Q777 754 881 839T985 1083Q985 1204 918 1258T698 1313H532Z" />
            <glyph unicode="S" glyph-name="S" horiz-adv-x="1028" d="M913 424Q913 213 773 97T377 -20Q271 -20 191 -6T39 43V213Q201 129 379 129Q541 129 636 204T731 412Q731 490 679 549T483 690Q332 775 274 860T215 1061Q215 1248 347 1365T694 1483Q793 1483 878
1464T1059 1399L993 1249Q927 1287 845 1309T694 1331Q560 1331 479 1262T397 1073Q397 1019 414 981T468 908T610 813Q757 725 808 675T886 565T913 424Z" />
            <glyph unicode="T" glyph-name="T" horiz-adv-x="1020" d="M487 0H315L592 1311H186L219 1462H1204L1174 1311H766L487 0Z" />
            <glyph unicode="U" glyph-name="U" horiz-adv-x="1384" d="M1407 1462L1202 496Q1147 233 1005 107T616 -20Q386 -20 275 84T164 383Q164 464 188 584L377 1462H547L356 571Q334 465 334 383Q334 266 407 199T625 131Q797 131 892 218T1032 508L1237 1462H1407Z" />
            <glyph unicode="V" glyph-name="V" horiz-adv-x="1122" d="M479 197Q540 341 641 535L1120 1462H1311L530 0H350L188 1462H358L455 532Q475 336 475 197H479Z" />
            <glyph unicode="W" glyph-name="W" horiz-adv-x="1745" d="M1257 0H1087L1038 965Q1030 1101 1030 1247H1024Q999 1175 963 1093T459 0H285L223 1462H393L424 561L426 473Q426 375 416 215H422Q511 458 578 598L983 1462H1161L1204 602Q1213 449 1213 298L1212
215H1221Q1296 439 1352 569L1739 1462H1921L1257 0Z" />
            <glyph unicode="X" glyph-name="X" horiz-adv-x="1063" d="M956 0H776L563 641L82 0H-104L492 776L229 1462H401L604 899L1047 1462H1233L678 768L956 0Z" />
            <glyph unicode="Y" glyph-name="Y" horiz-adv-x="1030" d="M537 715L1026 1462H1219L592 541L479 0H307L426 549L188 1462H358L537 715Z" />
            <glyph unicode="Z" glyph-name="Z" horiz-adv-x="1087" d="M885 0H-16L12 137L936 1307H281L313 1462H1171L1145 1323L221 154H918L885 0Z" />
            <glyph unicode="[" glyph-name="bracketleft" horiz-adv-x="586" d="M371 -324H-16L365 1462H752L721 1321H494L176 -182H403L371 -324Z" />
            <glyph unicode="\" glyph-name="backslash" horiz-adv-x="717" d="M375 1462L592 0H438L221 1462H375Z" />
            <glyph unicode="]" glyph-name="bracketright" horiz-adv-x="586" d="M-119 -182H106L426 1321H199L229 1462H618L238 -324H-150L-119 -182Z" />
            <glyph unicode="^" glyph-name="asciicircum" horiz-adv-x="1059" d="M53 553L651 1473H760L1026 553H881L680 1300L213 553H53Z" />
            <glyph unicode="_" glyph-name="underscore" horiz-adv-x="807" d="M623 -324H-188L-158 -184H653L623 -324Z" />
            <glyph unicode="`" glyph-name="grave" horiz-adv-x="1135" d="M903 1241H799Q738 1302 671 1395T575 1548V1569H756Q799 1433 903 1266V1241Z" />
            <glyph unicode="a" glyph-name="a" horiz-adv-x="1157" d="M639 1116Q731 1116 803 1067T915 924H926L993 1096H1120L887 0H754L780 209H772Q593 -20 395 -20Q256 -20 177 79T98 350Q98 558 169 736T365 1015T639 1116ZM449 119Q546 119 642 211T798 452T858 750Q858
853 802 914T655 975Q551 975 462 889T321 656T270 346Q270 232 317 176T449 119Z" />
            <glyph unicode="b" glyph-name="b" horiz-adv-x="1182" d="M545 -20Q448 -20 375 31T264 170H254L184 0H59L389 1556H557Q506 1314 479 1186T403 885H412Q505 1003 595 1058T782 1114Q923 1114 1002 1015T1081 743Q1081 534 1013 357T822 80T545 -20ZM731 975Q635
975 536 880T378 641T319 346Q319 236 374 178T535 119Q634 119 719 200T857 430T909 748Q909 975 731 975Z" />
            <glyph unicode="c" glyph-name="c" horiz-adv-x="922" d="M506 -20Q312 -20 205 87T98 389Q98 589 172 758T376 1021T670 1116Q807 1116 938 1065L891 924Q771 975 672 975Q560 975 468 899T323 686T270 389Q270 261 336 190T520 119Q592 119 656 139T782 186V43Q658
-20 506 -20Z" />
            <glyph unicode="d" glyph-name="d" horiz-adv-x="1182" d="M639 1114Q833 1114 920 924H930Q947 1079 975 1198L1053 1556H1219L889 0H750L772 209H764Q663 84 575 32T393 -20Q254 -20 176 78T98 350Q98 564 170 742T364 1017T639 1114ZM449 119Q543 119 643 212T801
451T860 748Q860 859 806 917T649 975Q548 975 462 893T323 661T270 346Q270 119 449 119Z" />
            <glyph unicode="e" glyph-name="e" horiz-adv-x="1010" d="M492 -20Q308 -20 203 89T98 391Q98 579 172 751T370 1020T641 1116Q794 1116 871 1050T948 864Q948 684 782 582T307 479H274L270 399Q270 268 331 195T522 121Q585 121 651 139T817 205V59Q723 15 651
-2T492 -20ZM631 973Q528 973 438 879T299 618H311Q539 618 660 677T782 850Q782 903 746 938T631 973Z" />
            <glyph unicode="f" glyph-name="f" horiz-adv-x="641" d="M-104 -492Q-173 -492 -229 -471V-330Q-165 -352 -117 -352Q-41 -352 0 -290T66 -113L293 969H100L113 1036L319 1102L342 1202Q388 1402 469 1484T711 1567Q751 1567 809 1556T899 1530L856 1401Q780
1430 719 1430Q632 1430 586 1382T510 1204L485 1096H723L698 969H461L229 -129Q190 -318 109 -405T-104 -492Z" />
            <glyph unicode="g" glyph-name="g" horiz-adv-x="1026" d="M1100 1096L1075 989L864 965Q905 903 905 807Q905 616 789 503T477 389Q422 389 393 397Q254 344 254 266Q254 225 287 212T383 190L500 176Q681 154 762 88T844 -106Q844 -290 698 -391T287 -492Q93
-492 -17 -419T-127 -211Q-127 -106 -55 -29T178 102Q100 143 100 223Q100 292 151 341T293 434Q230 466 190 528T150 674Q150 868 269 992T575 1116Q653 1116 729 1096H1100ZM35 -195Q35 -272 100 -317T293 -362Q475 -362 577 -299T680 -119Q680 -57 626 -21T442
29L283 45Q163 20 99 -43T35 -195ZM313 680Q313 595 358 551T483 506Q562 506 621 548T711 663T743 823Q743 905 699 948T573 991Q495 991 437 951T346 838T313 680Z" />
            <glyph unicode="h" glyph-name="h" horiz-adv-x="1182" d="M729 0L877 692Q895 786 895 827Q895 975 748 975Q659 975 575 916T426 745T328 473L227 0H59L389 1556H557Q539 1474 523 1397T489 1241T451 1074T403 885H414Q508 1008 599 1061T791 1114Q922 1114
993 1042T1065 838Q1065 776 1042 672Q1003 479 897 0H729Z" />
            <glyph unicode="i" glyph-name="i" horiz-adv-x="520" d="M227 0H59L293 1096H461L227 0ZM340 1376Q340 1432 372 1467T455 1503Q543 1503 543 1413Q543 1358 510 1320T432 1282Q392 1282 366 1306T340 1376Z" />
            <glyph unicode="j" glyph-name="j" horiz-adv-x="520" d="M-135 -492Q-204 -492 -258 -471V-330Q-197 -352 -139 -352Q-14 -352 29 -147L293 1096H459L193 -162Q157 -333 79 -412T-135 -492ZM340 1376Q340 1432 372 1467T455 1503Q541 1503 541 1413Q541 1358
508 1320T430 1282Q392 1282 366 1306T340 1376Z" />
            <glyph unicode="k" glyph-name="k" horiz-adv-x="999" d="M330 559L856 1096H1057L588 629L883 0H696L461 524L309 401L227 0H57L387 1556H557Q485 1220 428 954T326 559H330Z" />
            <glyph unicode="l" glyph-name="l" horiz-adv-x="520" d="M225 0H57L389 1556H557L225 0Z" />
            <glyph unicode="m" glyph-name="m" horiz-adv-x="1786" d="M696 0L844 692Q862 786 862 827Q862 897 831 936T725 975Q641 975 562 915T422 744T328 475L227 0H59L293 1096H432L410 893H420Q507 1012 593 1064T772 1116Q885 1116 946 1051T1018 870H1026Q1112
995 1209 1055T1405 1116Q1532 1116 1601 1048T1671 850Q1671 782 1649 672L1505 0H1335L1483 692Q1503 796 1503 838Q1503 900 1469 937T1360 975Q1279 975 1200 917T1062 753T971 500L864 0H696Z" />
            <glyph unicode="n" glyph-name="n" horiz-adv-x="1182" d="M729 0L877 692Q897 796 897 836Q897 899 862 937T748 975Q659 975 575 915T426 744T328 475L227 0H59L293 1096H432L410 893H420Q516 1015 605 1065T791 1116Q918 1116 991 1047T1065 852Q1065 773 1042
672L899 0H729Z" />
            <glyph unicode="o" glyph-name="o" horiz-adv-x="1149" d="M643 1110Q833 1110 943 998T1053 688Q1053 500 981 333T786 75T508 -16Q316 -16 207 97T98 406Q98 596 171 763T368 1020T643 1110ZM879 711Q879 826 817 897T647 969Q538 969 452 895T318 690T270 397Q270
266 333 195T516 123Q620 123 703 196T832 403T879 711Z" />
            <glyph unicode="p" glyph-name="p" horiz-adv-x="1182" d="M545 -20Q448 -20 375 30T262 170H252L248 132Q245 107 238 62T123 -492H-43L293 1096H432L406 887H414Q593 1114 786 1114Q923 1114 1002 1017T1081 743Q1081 531 1012 354T821 79T545 -20ZM731 975Q635
975 536 880T378 641T319 346Q319 236 374 178T535 119Q634 119 719 200T857 430T909 748Q909 975 731 975Z" />
            <glyph unicode="q" glyph-name="q" horiz-adv-x="1182" d="M641 1116Q735 1116 806 1066T915 924H928L995 1096H1120L784 -492H618L719 -12Q728 33 776 209H768Q673 88 583 34T397 -20Q257 -20 178 77T98 350Q98 562 170 742T366 1019T641 1116ZM449 119Q541 119
639 211T797 448T858 748Q858 853 804 914T651 975Q550 975 462 891T322 658T270 346Q270 119 449 119Z" />
            <glyph unicode="r" glyph-name="r" horiz-adv-x="811" d="M752 1116Q821 1116 872 1102L836 952Q783 965 731 965Q640 965 561 905T422 739T334 502L227 0H59L293 1096H432L410 893H420Q492 988 539 1029T637 1093T752 1116Z" />
            <glyph unicode="s" glyph-name="s" horiz-adv-x="877" d="M735 311Q735 155 625 68T313 -20Q144 -20 8 49V207Q78 165 159 142T309 119Q435 119 499 169T563 297Q563 354 528 393T377 500Q247 573 193 643T139 809Q139 947 240 1031T506 1116Q677 1116 836 1042L782
905L726 930Q625 973 506 973Q413 973 360 930T307 817Q307 761 342 721T489 618Q596 558 642 515T712 423T735 311Z" />
            <glyph unicode="t" glyph-name="t" horiz-adv-x="664" d="M395 117Q450 117 539 143V14Q505 0 455 -10T375 -20Q250 -20 184 39T117 217Q117 283 135 367L262 969H90L104 1042L289 1120L414 1348H512L457 1096H731L705 969H432L303 365Q285 278 285 233Q285 177
314 147T395 117Z" />
            <glyph unicode="u" glyph-name="u" horiz-adv-x="1182" d="M451 1096L301 401Q283 312 283 262Q283 119 430 119Q518 119 603 179T753 351T852 621L952 1096H1118L887 0H748L770 203H758Q660 78 571 29T387 -20Q259 -20 186 49T113 248Q113 310 135 420L281 1096H451Z" />
            <glyph unicode="v" glyph-name="v" horiz-adv-x="946" d="M223 0L98 1096H266L330 483Q354 225 354 121H360Q487 396 539 492L864 1096H1042L451 0H223Z" />
            <glyph unicode="w" glyph-name="w" horiz-adv-x="1468" d="M831 0L799 602Q795 696 795 774V930H786L736 812L653 623L362 0H160L117 1096H281L299 502V414Q299 267 291 145H297Q344 269 434 467L729 1096H911L948 502Q954 334 954 240V187L952 145H958Q986 231
1041 363T1364 1096H1542L1036 0H831Z" />
            <glyph unicode="x" glyph-name="x" horiz-adv-x="979" d="M467 434L121 0H-74L401 565L162 1096H332L506 684L836 1096H1030L575 557L827 0H659L467 434Z" />
            <glyph unicode="y" glyph-name="y" horiz-adv-x="946" d="M98 1096H266L340 551Q350 482 359 348T369 131H375Q410 218 462 331T539 487L864 1096H1042L346 -186Q253 -358 162 -425T-57 -492Q-129 -492 -197 -471V-336Q-134 -354 -66 -354Q16 -354 74 -304T188
-154L264 -18L98 1096Z" />
            <glyph unicode="z" glyph-name="z" horiz-adv-x="909" d="M690 0H-29L-6 117L688 971H209L236 1096H893L864 956L184 125H715L690 0Z" />
            <glyph unicode="{" glyph-name="braceleft" horiz-adv-x="715" d="M442 -324Q301 -324 226 -272T150 -100Q150 -48 170 41Q203 187 221 268T236 371Q236 514 27 514L59 657Q177 657 248 700T342 848L410 1174Q444 1334 527 1398T782 1462H815L784 1321Q679 1321
633 1285T567 1161L496 840Q468 717 405 656T238 578V573Q389 532 389 360Q389 301 371 229L324 18Q309 -40 309 -80Q309 -133 345 -157T465 -182V-324H442Z" />
            <glyph unicode="|" glyph-name="bar" horiz-adv-x="1128" d="M541 1556H680V-496H541V1556Z" />
            <glyph unicode="}" glyph-name="braceright" horiz-adv-x="715" d="M285 1462Q429 1462 505 1410T582 1239Q582 1191 561 1098L512 879Q496 811 496 768Q496 625 705 625L672 481Q553 481 482 438T389 291L322 -35Q286 -199 203 -261T-61 -324H-74V-182Q41 -182
93 -146T164 -23L236 299Q261 416 324 478T494 559V565Q344 607 344 776Q344 835 362 907L412 1120Q426 1185 426 1219Q426 1272 386 1296T246 1321L274 1462H285Z" />
            <glyph unicode="~" glyph-name="asciitilde" horiz-adv-x="1128" d="M348 713Q294 713 230 679T115 592V743Q213 852 358 852Q427 852 485 838T629 786Q693 759 741 745T840 731Q895 731 959 764T1075 852V702Q975 592 831 592Q759 592 696 608T561 657Q486 689
441 701T348 713Z" />
            <glyph unicode="&#xa0;" glyph-name="nbspace" horiz-adv-x="532" />
            <glyph unicode="&#xa1;" glyph-name="exclamdown" horiz-adv-x="530" d="M260 684H369L193 -373H-14L260 684ZM250 950Q250 1026 290 1072T401 1118Q445 1118 471 1092T498 1012Q498 941 458 895T352 848Q304 848 277 873T250 950Z" />
            <glyph unicode="&#xa2;" glyph-name="cent" horiz-adv-x="1128" d="M582 -20H457L500 195Q368 229 297 332T225 590Q225 775 288 934T467 1192T727 1313L762 1483H885L848 1315Q967 1306 1065 1266L1018 1124Q909 1176 799 1176Q687 1176 595 1100T450 887T397
590Q397 465 463 392T647 319Q719 319 783 339T909 387V244Q786 182 623 178L582 -20Z" />
            <glyph unicode="&#xa3;" glyph-name="sterling" horiz-adv-x="1128" d="M842 1481Q1026 1481 1178 1395L1112 1262Q966 1341 834 1341Q621 1341 571 1104L502 778H872L846 651H475L428 432Q406 334 362 266T238 154H963L930 0H-23L4 141Q209 187 262 430L309 651H109L135
778H336L412 1128Q487 1481 842 1481Z" />
            <glyph unicode="&#xa4;" glyph-name="currency" horiz-adv-x="1128" d="M229 723Q229 840 297 938L168 1067L260 1159L387 1030Q490 1100 604 1100Q718 1100 819 1030L948 1159L1040 1069L911 940Q981 836 981 723Q981 604 911 506L1038 379L948 289L819 416Q721
348 604 348Q485 348 387 418L260 291L170 381L297 508Q229 604 229 723ZM358 723Q358 620 429 549T604 477Q708 477 781 548T854 723Q854 827 781 900T604 973Q502 973 430 901T358 723Z" />
            <glyph unicode="&#xa5;" glyph-name="yen" horiz-adv-x="1128" d="M582 715L1073 1462H1260L727 692H958L930 559H633L600 399H897L868 266H573L516 0H362L418 266H127L156 399H446L479 559H188L217 692H442L240 1462H403L582 715Z" />
            <glyph unicode="&#xa6;" glyph-name="brokenbar" horiz-adv-x="1128" d="M541 1556H680V780H541V1556ZM541 281H680V-496H541V281Z" />
            <glyph unicode="&#xa7;" glyph-name="section" horiz-adv-x="995" d="M174 770Q174 971 412 1077Q293 1147 293 1280Q293 1407 396 1486T676 1565Q865 1565 997 1497L944 1374Q796 1434 678 1434Q576 1434 516 1394T455 1284Q455 1235 493 1201T655 1110Q755 1066
804 1027T879 937T905 823Q905 726 844 643T672 504Q786 433 786 315Q786 163 672 78T354 -8Q178 -8 59 53V201Q115 167 195 145T352 123Q485 123 556 167T627 297Q627 345 577 386T424 473Q286 534 230 603T174 770ZM514 1010Q432 984 379 923T326 791Q326 721
376 674T575 563Q655 607 702 670T750 801Q750 861 701 906T514 1010Z" />
            <glyph unicode="&#xa8;" glyph-name="dieresis" horiz-adv-x="1135" d="M457 1378Q457 1424 485 1457T559 1491Q637 1491 637 1411Q637 1362 608 1328T539 1294Q504 1294 481 1316T457 1378ZM821 1378Q821 1424 849 1457T924 1491Q1001 1491 1001 1411Q1001 1362
972 1328T903 1294Q868 1294 845 1316T821 1378Z" />
            <glyph unicode="&#xa9;" glyph-name="copyright" horiz-adv-x="1704" d="M928 1059Q803 1059 737 972T670 731Q670 562 735 482T928 401Q1010 401 1139 444V322Q1073 294 1026 284T922 274Q730 274 625 393T520 733Q520 941 630 1063T930 1186Q1060 1186 1178
1126L1118 1006Q1012 1059 928 1059ZM139 731Q139 931 239 1106T514 1382T891 1483Q1088 1483 1261 1386T1538 1114T1642 731Q1642 527 1542 355T1269 81T891 -20Q684 -20 509 83T237 360T139 731ZM244 731Q244 558 331 408T568 171T891 84Q1065 84 1214 171T1450
406T1538 731Q1538 905 1451 1054T1216 1290T891 1378Q717 1378 568 1291T332 1056T244 731Z" />
            <glyph unicode="&#xaa;" glyph-name="ordfeminine" horiz-adv-x="686" d="M498 1479Q612 1479 651 1376H657L694 1466H780L641 801H549L563 918H559Q519 862 469 825T346 788Q269 788 220 848T170 1014Q170 1141 211 1248T328 1417T498 1479ZM381 891Q442 891
493 940T579 1077T614 1245Q614 1307 586 1341T500 1376Q408 1376 346 1273T283 1030Q283 891 381 891Z" />
            <glyph unicode="&#xab;" glyph-name="guillemotleft" horiz-adv-x="958" d="M88 584L479 958L557 877L260 549L432 162L319 113L88 555V584ZM483 541L850 946L936 877L653 512L811 162L698 113L483 510V541Z" />
            <glyph unicode="&#xac;" glyph-name="logicalnot" horiz-adv-x="1128" d="M1047 793V264H907V651H127V793H1047Z" />
            <glyph unicode="&#xad;" glyph-name="uni00AD" horiz-adv-x="639" d="M55 469L90 627H569L535 469H55Z" />
            <glyph unicode="&#xae;" glyph-name="registered" horiz-adv-x="1704" d="M139 731Q139 931 239 1106T514 1382T891 1483Q1088 1483 1261 1386T1538 1114T1642 731Q1642 527 1542 355T1269 81T891 -20Q684 -20 509 83T237 360T139 731ZM244 731Q244 558 331 408T568
171T891 84Q1065 84 1214 171T1450 406T1538 731Q1538 905 1451 1054T1216 1290T891 1378Q717 1378 568 1291T332 1056T244 731ZM1194 915Q1194 837 1147 774T1014 676L1241 291H1092L885 643H772V291H645V1171H874Q1037 1171 1115 1108T1194 915ZM772 762H864Q1059
762 1059 911Q1059 987 1012 1018T862 1049H772V762Z" />
            <glyph unicode="&#xaf;" glyph-name="overscore" horiz-adv-x="782" d="M1012 1556H227L260 1688H1047L1012 1556Z" />
            <glyph unicode="&#xb0;" glyph-name="degree" horiz-adv-x="877" d="M215 1171Q215 1299 305 1391T526 1483Q609 1483 681 1442T796 1328T838 1171Q838 1043 748 953T526 862Q395 862 305 952T215 1171ZM328 1171Q328 1091 386 1033T526 975Q609 975 666 1033T723
1171Q723 1253 666 1311T526 1370Q446 1370 387 1312T328 1171Z" />
            <glyph unicode="&#xb1;" glyph-name="plusminus" horiz-adv-x="1128" d="M516 643H127V784H516V1176H657V784H1047V643H657V256H516V643ZM127 0V141H1047V0H127Z" />
            <glyph unicode="&#xb2;" glyph-name="twosuperior" horiz-adv-x="717" d="M657 586H96L119 692L383 920Q498 1020 541 1069T605 1162T625 1253Q625 1306 594 1338T504 1370Q414 1370 309 1290L250 1380Q375 1481 524 1481Q633 1481 695 1425T758 1274Q758 1175
706 1095T508 889L287 702H682L657 586Z" />
            <glyph unicode="&#xb3;" glyph-name="threesuperior" horiz-adv-x="717" d="M549 1036Q618 1019 657 968T696 848Q696 716 605 643T352 569Q227 569 119 625V752Q244 680 358 680Q563 680 563 850Q563 987 385 987H295L317 1094H412Q509 1094 567 1135T625 1247Q625
1307 591 1337T497 1368Q395 1368 301 1300L246 1393Q355 1481 514 1481Q628 1481 692 1425T756 1274Q756 1094 549 1040V1036Z" />
            <glyph unicode="&#xb4;" glyph-name="acute" horiz-adv-x="1135" d="M532 1268Q588 1328 657 1419T764 1569H954V1548Q916 1499 814 1397T637 1241H532V1268Z" />
            <glyph unicode="&#xb5;" glyph-name="mu" horiz-adv-x="1194" d="M295 266Q295 119 442 119Q531 119 614 178T762 349T862 618L967 1096H1130L897 0H758L782 205H770Q677 84 587 32T399 -20Q287 -20 236 76H227Q216 -2 205 -72T121 -492H-43L293 1096H461L313
401Q295 309 295 266Z" />
            <glyph unicode="&#xb6;" glyph-name="paragraph" horiz-adv-x="1341" d="M1206 -260H1092V1401H879V-260H764V559Q702 541 618 541Q402 541 301 666T199 1042Q199 1302 308 1429T649 1556H1206V-260Z" />
            <glyph unicode="&#xb7;" glyph-name="middot" horiz-adv-x="518" d="M170 690Q170 767 210 812T322 858Q365 858 391 832T418 753Q418 682 378 635T270 587Q224 587 197 613T170 690Z" />
            <glyph unicode="&#xb8;" glyph-name="cedilla" horiz-adv-x="420" d="M211 -276Q211 -374 130 -433T-84 -492Q-125 -492 -170 -483V-383Q-132 -389 -102 -389Q72 -389 72 -279Q72 -233 33 -212T-66 -182L35 0H141L80 -121Q211 -159 211 -276Z" />
            <glyph unicode="&#xb9;" glyph-name="onesuperior" horiz-adv-x="717" d="M537 1462H655L469 586H334L446 1112Q471 1215 504 1337Q479 1312 454 1291T309 1190L258 1280L537 1462Z" />
            <glyph unicode="&#xba;" glyph-name="ordmasculine" horiz-adv-x="688" d="M745 1219Q745 1028 657 908T416 788Q303 788 236 859T168 1055Q168 1172 210 1270T327 1424T502 1479Q619 1479 682 1412T745 1219ZM500 1376Q398 1376 340 1289T281 1059Q281 974 319
932T426 889Q520 889 578 977T637 1210Q637 1376 500 1376Z" />
            <glyph unicode="&#xbb;" glyph-name="guillemotright" horiz-adv-x="958" d="M872 485L479 115L401 197L698 520L526 911L639 961L872 514V485ZM477 528L109 127L23 197L305 557L147 911L260 961L477 559V528Z" />
            <glyph unicode="&#xbc;" glyph-name="onequarter" horiz-adv-x="1518" d="M1362 1462L276 0H123L1208 1462H1362ZM739 1462H857L671 586H536L648 1112Q673 1215 706 1337Q681 1312 656 1291T511 1190L460 1280L739 1462ZM1327 203H1198L1155 1H1028L1071 203H706L729
304L1210 883H1343L1222 320H1349L1327 203ZM1095 320Q1164 642 1185 715Q1165 679 1075 566L870 320H1095Z" />
            <glyph unicode="&#xbd;" glyph-name="onehalf" horiz-adv-x="1518" d="M683 1462H801L615 586H480L592 1112Q617 1215 650 1337Q625 1312 600 1291T455 1190L404 1280L683 1462ZM1305 1462L219 0H66L1151 1462H1305ZM1343 1H782L805 107L1069 335Q1184 435 1227
484T1291 577T1311 668Q1311 721 1280 753T1190 785Q1100 785 995 705L936 795Q1061 896 1210 896Q1319 896 1381 840T1444 689Q1444 590 1392 510T1194 304L973 117H1368L1343 1Z" />
            <glyph unicode="&#xbe;" glyph-name="threequarters" horiz-adv-x="1565" d="M773 1036Q842 1019 881 968T920 848Q920 716 829 643T576 569Q451 569 343 625V752Q468 680 582 680Q787 680 787 850Q787 987 609 987H519L541 1094H636Q733 1094 791 1135T849 1247Q849
1307 815 1337T721 1368Q619 1368 525 1300L470 1393Q579 1481 738 1481Q852 1481 916 1425T980 1274Q980 1094 773 1040V1036ZM1512 1462L426 0H273L1358 1462H1512ZM1477 203H1348L1305 1H1178L1221 203H856L879 304L1360 883H1493L1372 320H1499L1477 203ZM1245
320Q1314 642 1335 715Q1315 679 1225 566L1020 320H1245Z" />
            <glyph unicode="&#xbf;" glyph-name="questiondown" horiz-adv-x="874" d="M657 680Q635 550 585 468T420 293L325 218Q166 91 166 -57Q166 -150 217 -201T365 -252Q445 -252 519 -227T659 -170L721 -299Q631 -347 532 -373T346 -399Q178 -399 87 -316T-4 -78Q-4
46 62 150T287 373Q419 471 459 525T522 680H657ZM760 1010Q760 933 720 888T608 842Q565 842 539 868T512 946Q512 1017 552 1064T659 1112Q706 1112 733 1087T760 1010Z" />
            <glyph unicode="&#xc0;" glyph-name="Agrave" horiz-adv-x="1137" d="M813 465H317L72 0H-117L682 1462H856L1040 0H870L813 465ZM795 621L760 920Q736 1099 731 1270Q694 1182 651 1095T401 621H795ZM863 1579H759Q698 1640 631 1733T535 1886V1907H716Q759 1771
863 1604V1579Z" />
            <glyph unicode="&#xc1;" glyph-name="Aacute" horiz-adv-x="1137" d="M813 465H317L72 0H-117L682 1462H856L1040 0H870L813 465ZM795 621L760 920Q736 1099 731 1270Q694 1182 651 1095T401 621H795ZM679 1606Q735 1666 804 1757T911 1907H1101V1886Q1063 1837
961 1735T784 1579H679V1606Z" />
            <glyph unicode="&#xc2;" glyph-name="Acircumflex" horiz-adv-x="1137" d="M813 465H317L72 0H-117L682 1462H856L1040 0H870L813 465ZM795 621L760 920Q736 1099 731 1270Q694 1182 651 1095T401 621H795ZM1080 1579H977Q920 1627 816 1768Q682 1649 574 1579H465V1606Q610
1739 669 1803T752 1907H910Q947 1808 1038 1672L1080 1606V1579Z" />
            <glyph unicode="&#xc3;" glyph-name="Atilde" horiz-adv-x="1137" d="M813 465H317L72 0H-117L682 1462H856L1040 0H870L813 465ZM795 621L760 920Q736 1099 731 1270Q694 1182 651 1095T401 621H795ZM934 1581Q894 1581 857 1598T784 1637T715 1676T649 1694Q605
1694 580 1666T532 1579H432Q490 1837 663 1837Q707 1837 746 1819T821 1780T888 1740T946 1722Q990 1722 1015 1749T1067 1839H1167Q1101 1581 934 1581Z" />
            <glyph unicode="&#xc4;" glyph-name="Adieresis" horiz-adv-x="1137" d="M813 465H317L72 0H-117L682 1462H856L1040 0H870L813 465ZM795 621L760 920Q736 1099 731 1270Q694 1182 651 1095T401 621H795ZM523 1716Q523 1762 551 1795T625 1829Q703 1829 703 1749Q703
1700 674 1666T605 1632Q570 1632 547 1654T523 1716ZM887 1716Q887 1762 915 1795T990 1829Q1067 1829 1067 1749Q1067 1700 1038 1666T969 1632Q934 1632 911 1654T887 1716Z" />
            <glyph unicode="&#xc5;" glyph-name="Aring" horiz-adv-x="1137" d="M813 465H317L72 0H-117L682 1462H856L1040 0H870L813 465ZM795 621L760 920Q736 1099 731 1270Q694 1182 651 1095T401 621H795ZM991 1585Q991 1486 931 1428T772 1370Q671 1370 612 1427T553
1583Q553 1677 615 1735T772 1794Q873 1794 932 1737T991 1585ZM887 1583Q887 1636 855 1667T772 1698Q723 1698 690 1667T657 1583Q657 1529 686 1499T772 1468Q823 1468 855 1498T887 1583Z" />
            <glyph unicode="&#xc6;" glyph-name="AE" horiz-adv-x="1673" d="M1448 0H711L809 465H371L78 0H-119L819 1462H1757L1724 1309H1159L1059 840H1587L1559 690H1030L915 152H1481L1448 0ZM840 621L987 1309H903L469 621H840Z" />
            <glyph unicode="&#xc7;" glyph-name="Ccedilla" horiz-adv-x="1198" d="M942 1331Q768 1331 631 1234T413 950T332 541Q332 354 429 243T698 131Q837 131 1020 188V39Q934 8 856 -6T668 -20Q426 -20 288 129T150 537Q150 798 255 1022T539 1365T942 1483Q1139
1483 1290 1403L1221 1262Q1083 1331 942 1331ZM758 -276Q758 -374 677 -433T463 -492Q422 -492 377 -483V-383Q415 -389 445 -389Q619 -389 619 -279Q619 -233 580 -212T481 -182L582 0H688L627 -121Q758 -159 758 -276Z" />
            <glyph unicode="&#xc8;" glyph-name="Egrave" horiz-adv-x="1047" d="M821 0H86L395 1462H1130L1098 1309H532L434 840H961L932 688H403L289 152H854L821 0ZM898 1579H794Q733 1640 666 1733T570 1886V1907H751Q794 1771 898 1604V1579Z" />
            <glyph unicode="&#xc9;" glyph-name="Eacute" horiz-adv-x="1047" d="M821 0H86L395 1462H1130L1098 1309H532L434 840H961L932 688H403L289 152H854L821 0ZM657 1606Q713 1666 782 1757T889 1907H1079V1886Q1041 1837 939 1735T762 1579H657V1606Z" />
            <glyph unicode="&#xca;" glyph-name="Ecircumflex" horiz-adv-x="1047" d="M821 0H86L395 1462H1130L1098 1309H532L434 840H961L932 688H403L289 152H854L821 0ZM1084 1579H981Q924 1627 820 1768Q686 1649 578 1579H469V1606Q614 1739 673 1803T756 1907H914Q951
1808 1042 1672L1084 1606V1579Z" />
            <glyph unicode="&#xcb;" glyph-name="Edieresis" horiz-adv-x="1047" d="M821 0H86L395 1462H1130L1098 1309H532L434 840H961L932 688H403L289 152H854L821 0ZM523 1716Q523 1762 551 1795T625 1829Q703 1829 703 1749Q703 1700 674 1666T605 1632Q570 1632 547
1654T523 1716ZM887 1716Q887 1762 915 1795T990 1829Q1067 1829 1067 1749Q1067 1700 1038 1666T969 1632Q934 1632 911 1654T887 1716Z" />
            <glyph unicode="&#xcc;" glyph-name="Igrave" horiz-adv-x="559" d="M86 0L397 1462H565L254 0H86ZM593 1579H489Q428 1640 361 1733T265 1886V1907H446Q489 1771 593 1604V1579Z" />
            <glyph unicode="&#xcd;" glyph-name="Iacute" horiz-adv-x="559" d="M86 0L397 1462H565L254 0H86ZM412 1606Q468 1666 537 1757T644 1907H834V1886Q796 1837 694 1735T517 1579H412V1606Z" />
            <glyph unicode="&#xce;" glyph-name="Icircumflex" horiz-adv-x="559" d="M86 0L397 1462H565L254 0H86ZM808 1579H705Q648 1627 544 1768Q410 1649 302 1579H193V1606Q338 1739 397 1803T480 1907H638Q675 1808 766 1672L808 1606V1579Z" />
            <glyph unicode="&#xcf;" glyph-name="Idieresis" horiz-adv-x="559" d="M86 0L397 1462H565L254 0H86ZM265 1716Q265 1762 293 1795T367 1829Q445 1829 445 1749Q445 1700 416 1666T347 1632Q312 1632 289 1654T265 1716ZM629 1716Q629 1762 657 1795T732 1829Q809
1829 809 1749Q809 1700 780 1666T711 1632Q676 1632 653 1654T629 1716Z" />
            <glyph unicode="&#xd0;" glyph-name="Eth" horiz-adv-x="1364" d="M1300 877Q1300 616 1195 416T895 108T438 0H86L221 649H72L104 799H254L395 1462H737Q1013 1462 1156 1313T1300 877ZM449 147Q651 147 804 238T1038 497T1120 879Q1120 1094 1017 1204T715 1315H537L426
799H756L723 649H393L287 147H449Z" />
            <glyph unicode="&#xd1;" glyph-name="Ntilde" horiz-adv-x="1438" d="M1139 0H958L498 1223H492Q460 1002 418 805L246 0H84L393 1462H573L1032 242H1038Q1068 466 1110 647L1284 1462H1448L1139 0ZM1102 1581Q1062 1581 1025 1598T952 1637T883 1676T817 1694Q773
1694 748 1666T700 1579H600Q658 1837 831 1837Q875 1837 914 1819T989 1780T1056 1740T1114 1722Q1158 1722 1183 1749T1235 1839H1335Q1269 1581 1102 1581Z" />
            <glyph unicode="&#xd2;" glyph-name="Ograve" horiz-adv-x="1475" d="M1411 907Q1411 638 1323 426T1071 97T692 -20Q436 -20 293 129T150 549Q150 813 246 1031T509 1367T887 1485Q1131 1485 1271 1331T1411 907ZM874 1333Q717 1333 593 1232T401 951T332 553Q332
354 430 243T696 131Q848 131 968 228T1159 508T1229 911Q1229 1110 1135 1221T874 1333ZM1007 1579H903Q842 1640 775 1733T679 1886V1907H860Q903 1771 1007 1604V1579Z" />
            <glyph unicode="&#xd3;" glyph-name="Oacute" horiz-adv-x="1475" d="M1411 907Q1411 638 1323 426T1071 97T692 -20Q436 -20 293 129T150 549Q150 813 246 1031T509 1367T887 1485Q1131 1485 1271 1331T1411 907ZM874 1333Q717 1333 593 1232T401 951T332 553Q332
354 430 243T696 131Q848 131 968 228T1159 508T1229 911Q1229 1110 1135 1221T874 1333ZM821 1606Q877 1666 946 1757T1053 1907H1243V1886Q1205 1837 1103 1735T926 1579H821V1606Z" />
            <glyph unicode="&#xd4;" glyph-name="Ocircumflex" horiz-adv-x="1475" d="M1411 907Q1411 638 1323 426T1071 97T692 -20Q436 -20 293 129T150 549Q150 813 246 1031T509 1367T887 1485Q1131 1485 1271 1331T1411 907ZM874 1333Q717 1333 593 1232T401 951T332
553Q332 354 430 243T696 131Q848 131 968 228T1159 508T1229 911Q1229 1110 1135 1221T874 1333ZM1227 1579H1124Q1067 1627 963 1768Q829 1649 721 1579H612V1606Q757 1739 816 1803T899 1907H1057Q1094 1808 1185 1672L1227 1606V1579Z" />
            <glyph unicode="&#xd5;" glyph-name="Otilde" horiz-adv-x="1475" d="M1411 907Q1411 638 1323 426T1071 97T692 -20Q436 -20 293 129T150 549Q150 813 246 1031T509 1367T887 1485Q1131 1485 1271 1331T1411 907ZM874 1333Q717 1333 593 1232T401 951T332 553Q332
354 430 243T696 131Q848 131 968 228T1159 508T1229 911Q1229 1110 1135 1221T874 1333ZM1067 1581Q1027 1581 990 1598T917 1637T848 1676T782 1694Q738 1694 713 1666T665 1579H565Q623 1837 796 1837Q840 1837 879 1819T954 1780T1021 1740T1079 1722Q1123
1722 1148 1749T1200 1839H1300Q1234 1581 1067 1581Z" />
            <glyph unicode="&#xd6;" glyph-name="Odieresis" horiz-adv-x="1475" d="M1411 907Q1411 638 1323 426T1071 97T692 -20Q436 -20 293 129T150 549Q150 813 246 1031T509 1367T887 1485Q1131 1485 1271 1331T1411 907ZM874 1333Q717 1333 593 1232T401 951T332
553Q332 354 430 243T696 131Q848 131 968 228T1159 508T1229 911Q1229 1110 1135 1221T874 1333ZM664 1716Q664 1762 692 1795T766 1829Q844 1829 844 1749Q844 1700 815 1666T746 1632Q711 1632 688 1654T664 1716ZM1028 1716Q1028 1762 1056 1795T1131 1829Q1208
1829 1208 1749Q1208 1700 1179 1666T1110 1632Q1075 1632 1052 1654T1028 1716Z" />
            <glyph unicode="&#xd7;" glyph-name="multiply" horiz-adv-x="1128" d="M487 723L168 1044L266 1143L586 823L909 1143L1008 1047L684 723L1006 401L909 305L586 625L266 307L170 403L487 723Z" />
            <glyph unicode="&#xd8;" glyph-name="Oslash" horiz-adv-x="1475" d="M1411 907Q1411 638 1323 426T1071 97T692 -20Q492 -20 360 76L231 -84L119 8L256 178Q150 314 150 549Q150 813 246 1031T509 1367T887 1485Q986 1485 1065 1458T1217 1374L1348 1540L1462
1448L1313 1264Q1361 1202 1386 1108T1411 907ZM874 1333Q717 1333 593 1232T401 951T332 553Q332 418 373 326L1110 1245Q1020 1333 874 1333ZM1229 911Q1229 1029 1196 1116L463 205Q554 131 696 131Q848 131 968 228T1159 508T1229 911Z" />
            <glyph unicode="&#xd9;" glyph-name="Ugrave" horiz-adv-x="1384" d="M1407 1462L1202 496Q1147 233 1005 107T616 -20Q386 -20 275 84T164 383Q164 464 188 584L377 1462H547L356 571Q334 465 334 383Q334 266 407 199T625 131Q797 131 892 218T1032 508L1237
1462H1407ZM991 1579H887Q826 1640 759 1733T663 1886V1907H844Q887 1771 991 1604V1579Z" />
            <glyph unicode="&#xda;" glyph-name="Uacute" horiz-adv-x="1384" d="M1407 1462L1202 496Q1147 233 1005 107T616 -20Q386 -20 275 84T164 383Q164 464 188 584L377 1462H547L356 571Q334 465 334 383Q334 266 407 199T625 131Q797 131 892 218T1032 508L1237
1462H1407ZM823 1606Q879 1666 948 1757T1055 1907H1245V1886Q1207 1837 1105 1735T928 1579H823V1606Z" />
            <glyph unicode="&#xdb;" glyph-name="Ucircumflex" horiz-adv-x="1384" d="M1407 1462L1202 496Q1147 233 1005 107T616 -20Q386 -20 275 84T164 383Q164 464 188 584L377 1462H547L356 571Q334 465 334 383Q334 266 407 199T625 131Q797 131 892 218T1032 508L1237
1462H1407ZM1217 1579H1114Q1057 1627 953 1768Q819 1649 711 1579H602V1606Q747 1739 806 1803T889 1907H1047Q1084 1808 1175 1672L1217 1606V1579Z" />
            <glyph unicode="&#xdc;" glyph-name="Udieresis" horiz-adv-x="1384" d="M1407 1462L1202 496Q1147 233 1005 107T616 -20Q386 -20 275 84T164 383Q164 464 188 584L377 1462H547L356 571Q334 465 334 383Q334 266 407 199T625 131Q797 131 892 218T1032 508L1237
1462H1407ZM643 1716Q643 1762 671 1795T745 1829Q823 1829 823 1749Q823 1700 794 1666T725 1632Q690 1632 667 1654T643 1716ZM1007 1716Q1007 1762 1035 1795T1110 1829Q1187 1829 1187 1749Q1187 1700 1158 1666T1089 1632Q1054 1632 1031 1654T1007 1716Z"
            />
            <glyph unicode="&#xdd;" glyph-name="Yacute" horiz-adv-x="1030" d="M537 715L1026 1462H1219L592 541L479 0H307L426 549L188 1462H358L537 715ZM616 1606Q672 1666 741 1757T848 1907H1038V1886Q1000 1837 898 1735T721 1579H616V1606Z" />
            <glyph unicode="&#xde;" glyph-name="Thorn" horiz-adv-x="1159" d="M1106 829Q1106 581 942 450T459 319H326L256 0H86L395 1462H565L512 1206H672Q885 1206 995 1111T1106 829ZM354 465H489Q704 465 817 556T930 823Q930 949 860 1004T645 1059H479L354 465Z" />
            <glyph unicode="&#xdf;" glyph-name="germandbls" horiz-adv-x="1182" d="M-133 -492Q-202 -492 -256 -471V-328Q-195 -350 -145 -350Q-80 -350 -38 -303T27 -145L307 1169Q350 1369 463 1468T770 1567Q932 1567 1022 1496T1112 1300Q1112 1243 1091 1194T1030
1099T851 948Q741 865 741 797Q741 741 836 675Q883 641 937 588T1016 478T1042 354Q1042 179 934 80T641 -20Q466 -20 373 51V211Q424 170 491 145T621 119Q734 119 802 177T870 336Q870 376 860 407T826 466T737 549Q649 618 615 673T580 788Q580 841 598 884T648
962T772 1067Q852 1123 883 1154T931 1219T948 1290Q948 1354 896 1390T754 1427Q635 1427 568 1365T473 1174L199 -129Q159 -318 78 -405T-133 -492Z" />
            <glyph unicode="&#xe0;" glyph-name="agrave" horiz-adv-x="1157" d="M639 1116Q731 1116 803 1067T915 924H926L993 1096H1120L887 0H754L780 209H772Q593 -20 395 -20Q256 -20 177 79T98 350Q98 558 169 736T365 1015T639 1116ZM449 119Q546 119 642 211T798
452T858 750Q858 853 802 914T655 975Q551 975 462 889T321 656T270 346Q270 232 317 176T449 119ZM1080 1241H976Q915 1302 848 1395T752 1548V1569H933Q976 1433 1080 1266V1241Z" />
            <glyph unicode="&#xe1;" glyph-name="aacute" horiz-adv-x="1157" d="M639 1116Q731 1116 803 1067T915 924H926L993 1096H1120L887 0H754L780 209H772Q593 -20 395 -20Q256 -20 177 79T98 350Q98 558 169 736T365 1015T639 1116ZM449 119Q546 119 642 211T798
452T858 750Q858 853 802 914T655 975Q551 975 462 889T321 656T270 346Q270 232 317 176T449 119ZM600 1268Q656 1328 725 1419T832 1569H1022V1548Q984 1499 882 1397T705 1241H600V1268Z" />
            <glyph unicode="&#xe2;" glyph-name="acircumflex" horiz-adv-x="1157" d="M639 1116Q731 1116 803 1067T915 924H926L993 1096H1120L887 0H754L780 209H772Q593 -20 395 -20Q256 -20 177 79T98 350Q98 558 169 736T365 1015T639 1116ZM449 119Q546 119 642 211T798
452T858 750Q858 853 802 914T655 975Q551 975 462 889T321 656T270 346Q270 232 317 176T449 119ZM1261 1241H1158Q1101 1289 997 1430Q863 1311 755 1241H646V1268Q791 1401 850 1465T933 1569H1091Q1128 1470 1219 1334L1261 1268V1241Z" />
            <glyph unicode="&#xe3;" glyph-name="atilde" horiz-adv-x="1157" d="M639 1116Q731 1116 803 1067T915 924H926L993 1096H1120L887 0H754L780 209H772Q593 -20 395 -20Q256 -20 177 79T98 350Q98 558 169 736T365 1015T639 1116ZM449 119Q546 119 642 211T798
452T858 750Q858 853 802 914T655 975Q551 975 462 889T321 656T270 346Q270 232 317 176T449 119ZM856 1243Q816 1243 779 1260T706 1299T637 1338T571 1356Q527 1356 502 1328T454 1241H354Q412 1499 585 1499Q629 1499 668 1481T743 1442T810 1402T868 1384Q912
1384 937 1411T989 1501H1089Q1023 1243 856 1243Z" />
            <glyph unicode="&#xe4;" glyph-name="adieresis" horiz-adv-x="1157" d="M639 1116Q731 1116 803 1067T915 924H926L993 1096H1120L887 0H754L780 209H772Q593 -20 395 -20Q256 -20 177 79T98 350Q98 558 169 736T365 1015T639 1116ZM449 119Q546 119 642 211T798
452T858 750Q858 853 802 914T655 975Q551 975 462 889T321 656T270 346Q270 232 317 176T449 119ZM710 1378Q710 1424 738 1457T812 1491Q890 1491 890 1411Q890 1362 861 1328T792 1294Q757 1294 734 1316T710 1378ZM1074 1378Q1074 1424 1102 1457T1177 1491Q1254
1491 1254 1411Q1254 1362 1225 1328T1156 1294Q1121 1294 1098 1316T1074 1378Z" />
            <glyph unicode="&#xe5;" glyph-name="aring" horiz-adv-x="1157" d="M639 1116Q731 1116 803 1067T915 924H926L993 1096H1120L887 0H754L780 209H772Q593 -20 395 -20Q256 -20 177 79T98 350Q98 558 169 736T365 1015T639 1116ZM449 119Q546 119 642 211T798
452T858 750Q858 853 802 914T655 975Q551 975 462 889T321 656T270 346Q270 232 317 176T449 119ZM1207 1456Q1207 1357 1147 1299T988 1241Q887 1241 828 1298T769 1454Q769 1548 831 1606T988 1665Q1089 1665 1148 1608T1207 1456ZM1103 1454Q1103 1507 1071
1538T988 1569Q939 1569 906 1538T873 1454Q873 1400 902 1370T988 1339Q1039 1339 1071 1369T1103 1454Z" />
            <glyph unicode="&#xe6;" glyph-name="ae" horiz-adv-x="1669" d="M1165 -20Q1057 -20 976 19T854 139L823 0H709L735 209H727Q618 77 536 29T358 -20Q236 -20 167 79T98 348Q98 554 168 733T360 1014T623 1116Q705 1116 768 1068T870 924H881L948 1096H1057L1026
950Q1149 1116 1358 1116Q1477 1116 1550 1048T1624 864Q1624 682 1458 581T985 479H946L942 399Q942 268 1004 195T1198 121Q1253 121 1314 137T1493 205V55Q1329 -20 1165 -20ZM412 119Q507 119 600 210T753 451T813 750Q813 853 768 914T645 975Q546 975 458
889T320 657T270 348Q270 234 307 177T412 119ZM1325 973Q1208 973 1114 879T973 618H987Q1213 618 1335 676T1458 846Q1458 907 1423 940T1325 973Z" />
            <glyph unicode="&#xe7;" glyph-name="ccedilla" horiz-adv-x="922" d="M506 -20Q312 -20 205 87T98 389Q98 589 172 758T376 1021T670 1116Q807 1116 938 1065L891 924Q771 975 672 975Q560 975 468 899T323 686T270 389Q270 261 336 190T520 119Q592 119 656
139T782 186V43Q658 -20 506 -20ZM592 -276Q592 -374 511 -433T297 -492Q256 -492 211 -483V-383Q249 -389 279 -389Q453 -389 453 -279Q453 -233 414 -212T315 -182L416 0H522L461 -121Q592 -159 592 -276Z" />
            <glyph unicode="&#xe8;" glyph-name="egrave" horiz-adv-x="1010" d="M492 -20Q308 -20 203 89T98 391Q98 579 172 751T370 1020T641 1116Q794 1116 871 1050T948 864Q948 684 782 582T307 479H274L270 399Q270 268 331 195T522 121Q585 121 651 139T817 205V59Q723
15 651 -2T492 -20ZM631 973Q528 973 438 879T299 618H311Q539 618 660 677T782 850Q782 903 746 938T631 973ZM1033 1241H929Q868 1302 801 1395T705 1548V1569H886Q929 1433 1033 1266V1241Z" />
            <glyph unicode="&#xe9;" glyph-name="eacute" horiz-adv-x="1010" d="M492 -20Q308 -20 203 89T98 391Q98 579 172 751T370 1020T641 1116Q794 1116 871 1050T948 864Q948 684 782 582T307 479H274L270 399Q270 268 331 195T522 121Q585 121 651 139T817 205V59Q723
15 651 -2T492 -20ZM631 973Q528 973 438 879T299 618H311Q539 618 660 677T782 850Q782 903 746 938T631 973ZM585 1268Q641 1328 710 1419T817 1569H1007V1548Q969 1499 867 1397T690 1241H585V1268Z" />
            <glyph unicode="&#xea;" glyph-name="ecircumflex" horiz-adv-x="1010" d="M492 -20Q308 -20 203 89T98 391Q98 579 172 751T370 1020T641 1116Q794 1116 871 1050T948 864Q948 684 782 582T307 479H274L270 399Q270 268 331 195T522 121Q585 121 651 139T817
205V59Q723 15 651 -2T492 -20ZM631 973Q528 973 438 879T299 618H311Q539 618 660 677T782 850Q782 903 746 938T631 973ZM1222 1241H1119Q1062 1289 958 1430Q824 1311 716 1241H607V1268Q752 1401 811 1465T894 1569H1052Q1089 1470 1180 1334L1222 1268V1241Z"
            />
            <glyph unicode="&#xeb;" glyph-name="edieresis" horiz-adv-x="1010" d="M492 -20Q308 -20 203 89T98 391Q98 579 172 751T370 1020T641 1116Q794 1116 871 1050T948 864Q948 684 782 582T307 479H274L270 399Q270 268 331 195T522 121Q585 121 651 139T817 205V59Q723
15 651 -2T492 -20ZM631 973Q528 973 438 879T299 618H311Q539 618 660 677T782 850Q782 903 746 938T631 973ZM669 1378Q669 1424 697 1457T771 1491Q849 1491 849 1411Q849 1362 820 1328T751 1294Q716 1294 693 1316T669 1378ZM1033 1378Q1033 1424 1061 1457T1136
1491Q1213 1491 1213 1411Q1213 1362 1184 1328T1115 1294Q1080 1294 1057 1316T1033 1378Z" />
            <glyph unicode="&#xec;" glyph-name="igrave" horiz-adv-x="520" d="M227 0H59L293 1096H461L227 0ZM492 1241H388Q327 1302 260 1395T164 1548V1569H345Q388 1433 492 1266V1241Z" />
            <glyph unicode="&#xed;" glyph-name="iacute" horiz-adv-x="520" d="M227 0H59L293 1096H461L227 0ZM324 1268Q380 1328 449 1419T556 1569H746V1548Q708 1499 606 1397T429 1241H324V1268Z" />
            <glyph unicode="&#xee;" glyph-name="icircumflex" horiz-adv-x="520" d="M227 0H59L293 1096H461L227 0ZM708 1241H605Q548 1289 444 1430Q310 1311 202 1241H93V1268Q238 1401 297 1465T380 1569H538Q575 1470 666 1334L708 1268V1241Z" />
            <glyph unicode="&#xef;" glyph-name="idieresis" horiz-adv-x="520" d="M227 0H59L293 1096H461L227 0ZM161 1378Q161 1424 189 1457T263 1491Q341 1491 341 1411Q341 1362 312 1328T243 1294Q208 1294 185 1316T161 1378ZM525 1378Q525 1424 553 1457T628 1491Q705
1491 705 1411Q705 1362 676 1328T607 1294Q572 1294 549 1316T525 1378Z" />
            <glyph unicode="&#xf0;" glyph-name="eth" horiz-adv-x="1165" d="M676 1343Q610 1401 530 1456L625 1573Q743 1489 813 1419L1073 1565L1137 1460L897 1327Q984 1212 1023 1087T1063 817Q1063 564 992 370T789 78T477 -20Q295 -20 193 84T90 373Q90 533 157 671T344
888T612 967Q717 967 793 922T905 797L911 799V816Q911 952 875 1056T764 1253L494 1104L438 1212L676 1343ZM487 121Q594 121 677 177T811 345T862 571Q862 689 797 758T618 827Q509 827 429 770T306 609T262 377Q262 251 319 186T487 121Z" />
            <glyph unicode="&#xf1;" glyph-name="ntilde" horiz-adv-x="1182" d="M729 0L877 692Q897 796 897 836Q897 899 862 937T748 975Q659 975 575 915T426 744T328 475L227 0H59L293 1096H432L410 893H420Q516 1015 605 1065T791 1116Q918 1116 991 1047T1065 852Q1065
773 1042 672L899 0H729ZM871 1243Q831 1243 794 1260T721 1299T652 1338T586 1356Q542 1356 517 1328T469 1241H369Q427 1499 600 1499Q644 1499 683 1481T758 1442T825 1402T883 1384Q927 1384 952 1411T1004 1501H1104Q1038 1243 871 1243Z" />
            <glyph unicode="&#xf2;" glyph-name="ograve" horiz-adv-x="1149" d="M643 1110Q833 1110 943 998T1053 688Q1053 500 981 333T786 75T508 -16Q316 -16 207 97T98 406Q98 596 171 763T368 1020T643 1110ZM879 711Q879 826 817 897T647 969Q538 969 452 895T318
690T270 397Q270 266 333 195T516 123Q620 123 703 196T832 403T879 711ZM1054 1241H950Q889 1302 822 1395T726 1548V1569H907Q950 1433 1054 1266V1241Z" />
            <glyph unicode="&#xf3;" glyph-name="oacute" horiz-adv-x="1149" d="M643 1110Q833 1110 943 998T1053 688Q1053 500 981 333T786 75T508 -16Q316 -16 207 97T98 406Q98 596 171 763T368 1020T643 1110ZM879 711Q879 826 817 897T647 969Q538 969 452 895T318
690T270 397Q270 266 333 195T516 123Q620 123 703 196T832 403T879 711ZM589 1268Q645 1328 714 1419T821 1569H1011V1548Q973 1499 871 1397T694 1241H589V1268Z" />
            <glyph unicode="&#xf4;" glyph-name="ocircumflex" horiz-adv-x="1149" d="M643 1110Q833 1110 943 998T1053 688Q1053 500 981 333T786 75T508 -16Q316 -16 207 97T98 406Q98 596 171 763T368 1020T643 1110ZM879 711Q879 826 817 897T647 969Q538 969 452 895T318
690T270 397Q270 266 333 195T516 123Q620 123 703 196T832 403T879 711ZM1253 1241H1150Q1093 1289 989 1430Q855 1311 747 1241H638V1268Q783 1401 842 1465T925 1569H1083Q1120 1470 1211 1334L1253 1268V1241Z" />
            <glyph unicode="&#xf5;" glyph-name="otilde" horiz-adv-x="1149" d="M643 1110Q833 1110 943 998T1053 688Q1053 500 981 333T786 75T508 -16Q316 -16 207 97T98 406Q98 596 171 763T368 1020T643 1110ZM879 711Q879 826 817 897T647 969Q538 969 452 895T318
690T270 397Q270 266 333 195T516 123Q620 123 703 196T832 403T879 711ZM844 1243Q804 1243 767 1260T694 1299T625 1338T559 1356Q515 1356 490 1328T442 1241H342Q400 1499 573 1499Q617 1499 656 1481T731 1442T798 1402T856 1384Q900 1384 925 1411T977 1501H1077Q1011
1243 844 1243Z" />
            <glyph unicode="&#xf6;" glyph-name="odieresis" horiz-adv-x="1149" d="M643 1110Q833 1110 943 998T1053 688Q1053 500 981 333T786 75T508 -16Q316 -16 207 97T98 406Q98 596 171 763T368 1020T643 1110ZM879 711Q879 826 817 897T647 969Q538 969 452 895T318
690T270 397Q270 266 333 195T516 123Q620 123 703 196T832 403T879 711ZM689 1378Q689 1424 717 1457T791 1491Q869 1491 869 1411Q869 1362 840 1328T771 1294Q736 1294 713 1316T689 1378ZM1053 1378Q1053 1424 1081 1457T1156 1491Q1233 1491 1233 1411Q1233
1362 1204 1328T1135 1294Q1100 1294 1077 1316T1053 1378Z" />
            <glyph unicode="&#xf7;" glyph-name="divide" horiz-adv-x="1128" d="M127 651V793H1047V651H127ZM475 373Q475 494 586 494Q639 494 668 464T698 373Q698 315 668 284T586 252Q534 252 505 283T475 373ZM475 1071Q475 1192 586 1192Q639 1192 668 1162T698 1071Q698
1013 668 982T586 950Q534 950 505 981T475 1071Z" />
            <glyph unicode="&#xf8;" glyph-name="oslash" horiz-adv-x="1149" d="M1047 705Q1047 516 978 345T786 79T510 -16Q364 -16 264 49L166 -76L61 6L170 141Q102 244 102 406Q102 600 175 767T371 1022T643 1110Q789 1110 895 1042L999 1171L1104 1092L985 963Q1047
866 1047 705ZM647 971Q539 971 452 898T314 696T264 416Q264 324 281 279L799 924Q745 971 647 971ZM885 688Q885 772 872 807L358 166Q415 121 516 121Q619 121 704 192T837 393T885 688Z" />
            <glyph unicode="&#xf9;" glyph-name="ugrave" horiz-adv-x="1182" d="M451 1096L301 401Q283 312 283 262Q283 119 430 119Q518 119 603 179T753 351T852 621L952 1096H1118L887 0H748L770 203H758Q660 78 571 29T387 -20Q259 -20 186 49T113 248Q113 310 135
420L281 1096H451ZM1056 1241H952Q891 1302 824 1395T728 1548V1569H909Q952 1433 1056 1266V1241Z" />
            <glyph unicode="&#xfa;" glyph-name="uacute" horiz-adv-x="1182" d="M451 1096L301 401Q283 312 283 262Q283 119 430 119Q518 119 603 179T753 351T852 621L952 1096H1118L887 0H748L770 203H758Q660 78 571 29T387 -20Q259 -20 186 49T113 248Q113 310 135
420L281 1096H451ZM636 1268Q692 1328 761 1419T868 1569H1058V1548Q1020 1499 918 1397T741 1241H636V1268Z" />
            <glyph unicode="&#xfb;" glyph-name="ucircumflex" horiz-adv-x="1182" d="M451 1096L301 401Q283 312 283 262Q283 119 430 119Q518 119 603 179T753 351T852 621L952 1096H1118L887 0H748L770 203H758Q660 78 571 29T387 -20Q259 -20 186 49T113 248Q113 310
135 420L281 1096H451ZM1024 1241H921Q864 1289 760 1430Q626 1311 518 1241H409V1268Q554 1401 613 1465T696 1569H854Q891 1470 982 1334L1024 1268V1241Z" />
            <glyph unicode="&#xfc;" glyph-name="udieresis" horiz-adv-x="1182" d="M451 1096L301 401Q283 312 283 262Q283 119 430 119Q518 119 603 179T753 351T852 621L952 1096H1118L887 0H748L770 203H758Q660 78 571 29T387 -20Q259 -20 186 49T113 248Q113 310 135
420L281 1096H451ZM457 1378Q457 1424 485 1457T559 1491Q637 1491 637 1411Q637 1362 608 1328T539 1294Q504 1294 481 1316T457 1378ZM821 1378Q821 1424 849 1457T924 1491Q1001 1491 1001 1411Q1001 1362 972 1328T903 1294Q868 1294 845 1316T821 1378Z" />
            <glyph unicode="&#xfd;" glyph-name="yacute" horiz-adv-x="946" d="M98 1096H266L340 551Q350 482 359 348T369 131H375Q410 218 462 331T539 487L864 1096H1042L346 -186Q253 -358 162 -425T-57 -492Q-129 -492 -197 -471V-336Q-134 -354 -66 -354Q16 -354 74
-304T188 -154L264 -18L98 1096ZM756 1268Q812 1328 881 1419T988 1569H1178V1548Q1140 1499 1038 1397T861 1241H756V1268Z" />
            <glyph unicode="&#xfe;" glyph-name="thorn" horiz-adv-x="1182" d="M545 -20Q447 -20 373 31T260 170H250Q242 66 225 -6L123 -492H-43L389 1556H557Q462 1115 442 1034T403 885H412Q513 1010 601 1062T784 1114Q923 1114 1002 1017T1081 743Q1081 531 1012 354T821
79T545 -20ZM731 975Q635 975 536 880T378 641T319 346Q319 236 374 178T535 119Q634 119 719 200T857 430T909 748Q909 975 731 975Z" />
            <glyph unicode="&#xff;" glyph-name="ydieresis" horiz-adv-x="946" d="M98 1096H266L340 551Q350 482 359 348T369 131H375Q410 218 462 331T539 487L864 1096H1042L346 -186Q253 -358 162 -425T-57 -492Q-129 -492 -197 -471V-336Q-134 -354 -66 -354Q16 -354
74 -304T188 -154L264 -18L98 1096ZM591 1378Q591 1424 619 1457T693 1491Q771 1491 771 1411Q771 1362 742 1328T673 1294Q638 1294 615 1316T591 1378ZM955 1378Q955 1424 983 1457T1058 1491Q1135 1491 1135 1411Q1135 1362 1106 1328T1037 1294Q1002 1294 979
1316T955 1378Z" />
            <glyph unicode="&#x2013;" glyph-name="endash" horiz-adv-x="983" d="M55 469L90 629H913L879 469H55Z" />
            <glyph unicode="&#x2014;" glyph-name="emdash" horiz-adv-x="1966" d="M55 469L90 629H1896L1862 469H55Z" />
            <glyph unicode="&#x2018;" glyph-name="quoteleft" horiz-adv-x="348" d="M129 961L123 983Q221 1194 393 1462H520Q373 1117 317 961H129Z" />
            <glyph unicode="&#x2019;" glyph-name="quoteright" horiz-adv-x="348" d="M516 1462L524 1440Q484 1349 413 1222T254 961H125Q259 1259 328 1462H516Z" />
            <glyph unicode="&#x201a;" glyph-name="quotesinglbase" horiz-adv-x="492" d="M291 238L299 215Q186 -20 29 -264H-100Q26 22 104 238H291Z" />
            <glyph unicode="&#x201c;" glyph-name="quotedblleft" horiz-adv-x="719" d="M500 961L492 983Q572 1164 764 1462H891Q729 1083 688 961H500ZM129 961L123 983Q221 1194 393 1462H520Q373 1117 317 961H129Z" />
            <glyph unicode="&#x201d;" glyph-name="quotedblright" horiz-adv-x="719" d="M516 1462L524 1440Q484 1349 413 1222T254 961H125Q259 1259 328 1462H516ZM885 1462L895 1440Q801 1234 621 961H494Q551 1087 609 1233T696 1462H885Z" />
            <glyph unicode="&#x201e;" glyph-name="quotedblbase" horiz-adv-x="858" d="M291 238L299 215Q186 -20 29 -264H-100Q26 22 104 238H291ZM659 238L668 215Q573 10 397 -264H268Q408 52 471 238H659Z" />
            <glyph unicode="&#x2022;" glyph-name="bullet" horiz-adv-x="774" d="M199 684Q199 829 272 915T471 1001Q563 1001 610 952T657 811Q657 670 583 581T381 492Q292 492 246 541T199 684Z" />
            <glyph unicode="&#x2039;" glyph-name="guilsinglleft" horiz-adv-x="580" d="M88 578L479 958L557 877L260 543L432 162L319 113L88 549V578Z" />
            <glyph unicode="&#x203a;" glyph-name="guilsinglright" horiz-adv-x="580" d="M492 496L100 115L23 197L319 530L147 911L260 961L492 524V496Z" />
            </font>
</defs>
</svg>
